# xmcd
#
# Track frame offsets:
#	150
#	16401
#	28816
#	43818
#	57866
#	73473
#	89717
#	106567
#	121362
#	132244
#	143790
#	159069
#	175409
#	189500
#	203681
#	219625
#	233700
#	247499
#	266646
#	289392
#	305689
#	319656
#	337052
#	350549
#
# Disc length: 4795 seconds
#
# Revision: 0
# Processed by: cddbd v1.5.2PL0 Copyright (c) Steve Scherf et al.
# Submitted via: EasyCDDAExtractor 11.0.0.1
#
DISCID=7c12b918
DTITLE=belanova - Fantasia pop
DYEAR=2007
DGENRE=Pop
TTITLE0=baila mi corazon
TTITLE1=one,two,tree,go
TTITLE2=por esta vez
TTITLE3=rockstar
TTITLE4=paso el tiempo
TTITLE5=vestida de azul
TTITLE6=cada vez
TTITLE7=aun
TTITLE8=bye bye
TTITLE9=toma mi mano
TTITLE10=dulce fantasia
TTITLE11=por ti
TTITLE12=rosa pastel
TTITLE13=me pregunto
TTITLE14=niño
TTITLE15=suele pasar
TTITLE16=tus ojos
TTITLE17=y aun asi te vas
TTITLE18=what a shame
TTITLE19=miedo
TTITLE20=mirame
TTITLE21=soñar
TTITLE22=tal vez
TTITLE23=eres tu (high school musical)
EXTD=
EXTT0=
EXTT1=
EXTT2=
EXTT3=
EXTT4=
EXTT5=
EXTT6=
EXTT7=
EXTT8=
EXTT9=
EXTT10=
EXTT11=
EXTT12=
EXTT13=
EXTT14=
EXTT15=
EXTT16=
EXTT17=
EXTT18=
EXTT19=
EXTT20=
EXTT21=
EXTT22=
EXTT23=
PLAYORDER=
